PathFileType	4	(X/Y/Z)	Patient4_TMGait_0pt2_03_right_11.trc.trc
DataRate	CameraRate	NumFrames	NumMarkers	Units	OrigDataRate	OrigDataStartFrame	OrigNumFrames
45.307443365696	45.307443365696	4	33	mm	45.307443365696	124	       141
Frame#	Time	Sacral			L.Shoulder			Chest			R.Shoulder			Neck			R.ASIS			L.ASIS			R.Thigh.Superior			R.Thigh.Lateral			R.Thigh.Inferior			R.Patella			L.Thigh.Superior			L.Thigh.Lateral			L.Thigh.Inferior			L.Patella			L.Shank.Superior			L.Shank.Lateral			L.Shank.Inferior			R.Shank.Superior			R.Shank.Lateral			R.Shank.Inferior			R.Heel			R.Midfoot.Superior			R.Midfoot.Lateral			R.Toe			L.Heel			L.Midfoot.Lateral			L.Midfoot.Superior			L.Toe			L.Elbow			L.Wrist			R.Elbow			R.Wrist			
		X1	Y1	Z1	X2	Y2	Z2	X3	Y3	Z3	X4	Y4	Z4	X5	Y5	Z5	X6	Y6	Z6	X7	Y7	Z7	X8	Y8	Z8	X9	Y9	Z9	X10	Y10	Z10	X11	Y11	Z11	X12	Y12	Z12	X13	Y13	Z13	X14	Y14	Z14	X15	Y15	Z15	X16	Y16	Z16	X17	Y17	Z17	X18	Y18	Z18	X19	Y19	Z19	X20	Y20	Z20	X21	Y21	Z21	X22	Y22	Z22	X23	Y23	Z23	X24	Y24	Z24	X25	Y25	Z25	X26	Y26	Z26	X27	Y27	Z27	X28	Y28	Z28	X29	Y29	Z29	X30	Y30	Z30	X31	Y31	Z31	X32	Y32	Z32	X33	Y33	Z33	

124	26.234785714286	815.728151577755	1007.419695520041	413.042778465978	1065.234557107155	1431.661253404377	309.501533445210	1098.419229658593	1356.009085418683	493.570854577468	960.566922251801	1433.218406060566	625.839692904669	990.453354274822	1490.331224298139	454.021844016426	998.250487934618	935.523506008159	595.393647707903	1065.166244865239	956.392515217312	328.207103644649	1071.137186203458	753.577440334848	578.112829835981	999.318714347489	635.783349771889	634.955474211838	1096.224672799909	594.035731642035	570.912491658168	1115.561813199165	513.788961785318	586.581397330024	1069.109594294908	729.505523526199	361.905850924110	970.012808308220	619.527205235795	275.377320766604	1025.383305597093	539.292986074189	361.258174739787	1011.504185555983	472.416582249677	369.797325408037	978.703383776194	404.262620935235	356.696297823240	888.781369112945	298.448232197163	291.422716124546	909.289621429975	185.525616876201	372.920046378845	1102.100591968041	422.968246118286	598.899737763729	1043.481029605684	312.463726889817	663.565920736652	1114.464847698605	223.840299862390	618.913512619072	1019.099028052787	40.655456975384	597.070467088262	1181.257209387029	114.186379572854	637.046541339391	1103.136161874356	38.785090930755	669.811120555540	1305.046716546380	78.516078540345	661.675407943593	762.991974958513	38.078455211501	398.321986169276	844.986822248608	35.421772641082	325.809895758640	925.647313874273	94.891363242786	362.453855943809	1055.990256015817	43.142013664436	346.557327326884	1224.379120854332	1143.233175426851	172.317170052924	1461.022918250141	1194.036972755947	258.167579944667	785.259667504110	1121.915964467389	677.925726100793	821.440900721772	862.130350677931	691.902384066765	
125	26.256857142857	819.054821810477	1005.951226993941	418.125634121816	1067.471057812706	1430.553930268973	315.852859133409	1100.715935466086	1354.972774168469	499.950279719565	962.537986388500	1431.986216683946	632.031165315407	992.540280915830	1489.096634748143	460.276481943396	1001.712842681474	933.507946582213	600.214132655690	1068.802783618065	955.909476510406	333.183317766579	1075.140843138688	751.837445789336	581.472624649760	1003.305551403616	633.520019747649	637.224966764548	1100.428045597024	592.447866557950	573.073819614222	1118.692958420188	511.550003509608	588.015088692984	1070.648722333482	728.066562176625	365.379701184060	969.715016877732	619.667038093287	278.268237822427	1023.708224964758	538.360969548273	363.447939594159	1009.053971792417	471.602780832322	371.663190218195	975.904402587111	403.855809009102	358.286031388116	885.266757593802	298.837245580189	292.482227259045	905.310013210006	185.319249965267	373.378544835504	1104.742770747537	420.358144455337	600.244992684411	1044.998078184223	310.436654021726	664.479247312867	1114.308282201776	221.255893143246	618.957517450801	1015.686895703148	40.819410372911	596.879539716229	1179.183931555164	111.159921084554	635.883514256848	1099.720428323635	37.922141208269	669.650404081714	1302.338333710535	73.359087260890	660.535291186504	758.537632391961	37.927019263722	398.218306453237	840.576091046550	35.299051072013	325.830339090531	921.254490865063	94.879606013302	362.457784804956	1051.628005986174	42.975206756460	346.540980917842	1227.181924072517	1142.192289995352	178.780791328747	1462.324860483050	1199.797389008456	264.754067448296	789.754493030286	1119.246792500080	685.266802202127	835.315144219470	861.318603826258	702.571283795066	
126	26.278928571429	822.586768615113	1004.743248425078	423.729800857064	1069.782036291578	1429.765058737180	322.327751899179	1103.285255361830	1354.210628466128	506.406738180613	964.907923763386	1430.973042090778	638.476338660550	994.768470561645	1488.127707357274	466.724333209160	1005.710566868816	931.996459848292	605.336995213858	1072.531329560218	955.561842393659	338.347537898766	1079.831711629060	750.663728404579	584.846715991199	1008.340022400740	631.852845110215	639.872269430027	1105.429610112832	591.324822226591	575.314728186297	1122.780626176154	509.555112633017	589.655064911330	1072.156066671385	726.696514473534	369.060961325592	969.278298351513	619.943591183414	281.478891829601	1022.063301921059	537.531105691758	365.878223985951	1006.686909666015	470.871567076334	373.739903953309	973.139799416144	403.582459822575	360.058714189836	881.656687370527	299.432713005183	293.739651628821	901.343154667181	185.213594948783	373.885778791560	1107.907899097870	418.025139786978	601.676547753329	1046.762671788400	308.820281072003	665.565722953947	1113.942522435659	218.848950666356	618.951015922074	1011.375179163728	41.173524044024	596.584745194146	1176.401381107642	108.184815586599	634.616084443428	1095.428584059696	37.199152733870	669.399785745004	1298.903952736892	68.088442491975	659.263477443608	754.081006369851	37.857690389999	398.108837230198	836.179073234748	35.214415211028	325.872391336372	916.906492152587	94.892991412698	362.453813563539	1047.288527884709	42.763849445253	346.511436611558	1229.277348254685	1140.837248451134	185.400713263453	1463.423219107522	1203.542957737188	271.324955593195	794.646375706087	1116.891981820984	693.270770817409	849.525323406079	861.304846957976	714.157342348328	
127	26.301000000000	826.253494190920	1003.862420937748	429.846118954966	1072.182775475249	1429.327863407657	328.830806031488	1106.121099046434	1353.762046290084	512.848136788028	967.677397478920	1430.253783049845	645.065301004971	997.153886405647	1487.477250988806	473.257906542396	1010.145184230683	931.060945248582	610.772441317925	1076.256285937806	955.360387371307	343.698661318324	1084.965655697800	750.029374458108	588.359577334991	1014.047623066707	630.786145094576	642.990263332822	1110.852984415433	590.619359206398	577.764596467791	1127.450546759613	507.850004794419	591.590228375229	1073.585476612433	725.457931494353	372.965969550036	968.724143728654	620.384080759632	285.014444580169	1020.534650555872	536.834773005747	368.547787871504	1004.512257035174	470.236388506290	376.016323805410	970.504641747369	403.461401590252	362.004158982108	878.014948850901	300.284008725901	295.206427048508	897.445379170944	185.251917209473	374.432535922642	1111.335858602003	416.036110649290	603.267769351046	1048.675301150405	307.600171684774	666.900519388821	1113.421099551388	216.717979708444	618.994192894943	1006.582194658559	41.604472173077	596.291176677450	1173.157652533956	105.476972902133	633.403370004734	1090.673933514324	36.639045760510	669.154669880363	1295.047943012797	63.159680487110	658.011635922678	749.634831265882	37.980676437787	397.998456364014	831.803870284784	35.228331717119	325.936240443868	912.634977239277	94.948545772254	362.438842241709	1042.973085616513	42.490317197349	346.467943887558	1230.645683016350	1139.185138810691	192.136525322216	1464.382036472292	1205.128457067895	277.927507673632	799.879721943372	1114.999557149717	701.879093239291	863.962143866173	862.233975948456	726.580096088196	
